<svg xmlns="http://www.w3.org/2000/svg" viewBox="0 0 640 395"><filter id="b"><feGaussianBlur stdDeviation="12" /></filter><path fill="#79869d" d="M0 0h640v395H0z"/><g filter="url(#b)" transform="matrix(2.5 0 0 2.5 1.3 1.3)" fill-opacity=".5"><ellipse fill="#edb75e" rx="1" ry="1" transform="matrix(64.4914 -63.83274 19.78752 19.9917 86.1 100.1)"/><path fill="#87601d" d="M121 110l43-62 66 100z"/><ellipse fill="#541800" rx="1" ry="1" transform="rotate(-141.9 41.6 39.4) scale(6.45305 86.84465)"/><ellipse fill="#598de2" rx="1" ry="1" transform="matrix(31.35146 -19.06556 71.02554 116.79459 203.5 42.8)"/><ellipse fill="#000100" rx="1" ry="1" transform="matrix(13.70068 10.28543 -6.29005 8.37864 107.2 43.7)"/><ellipse fill="#5589e1" cx="33" cy="26" rx="52" ry="52"/><path fill="#220600" d="M114 3l24 1 9 39z"/><path fill="#fef7d8" d="M123.2 105.6L74 69.3l85.7-14.8-36 27.2z"/></g></svg>