<svg xmlns="http://www.w3.org/2000/svg" viewBox="0 0 240 240"><filter id="b"><feGaussianBlur stdDeviation="12" /></filter><path d="M0 0h240v240H0z"/><path fill="#060606" fill-opacity=".5" d="M12.5 196.6l-1-.3 43-150 1 .4z"/><path fill="#030303" fill-opacity=".5" d="M59.4 205.4l-.2-1 166.4-50.8.2 1z"/><path fill="#0a0a0a" fill-opacity=".5" d="M81 88.5v10h-1v-10z"/><path fill="#030303" fill-opacity=".5" d="M119.7 8.2l52 27.7-.4.9-52-27.7z"/><path fill="#040404" fill-opacity=".5" d="M134.3 15.2l-.4 1-93.2-30.4.4-1zm101 116.4l-.9.5-22.7-46.7.9-.5z"/><path fill="#060606" fill-opacity=".5" d="M56.5 113.3l1 .2-27 94.2-1-.2z"/><path fill="#050505" fill-opacity=".5" d="M143.6 56.5l-.4.9-31.8-17 .4-.8z"/></svg>