<svg xmlns="http://www.w3.org/2000/svg" viewBox="0 0 415 400"><filter id="b"><feGaussianBlur stdDeviation="12" /></filter><path fill="#a2a2a3" d="M0 0h415v398H0z"/><g filter="url(#b)" transform="translate(.8 .8) scale(1.6211)" fill-opacity=".5"><ellipse fill="#67361a" rx="1" ry="1" transform="matrix(26.24597 -14.4186 41.93073 76.32594 131.5 119)"/><ellipse fill="#156cb2" rx="1" ry="1" transform="matrix(-3.84743 38.5463 -79.31306 -7.9165 219.9 36.8)"/><ellipse fill="#fff" rx="1" ry="1" transform="matrix(-69.10921 -5.67812 1.58331 -19.2707 211.3 93.6)"/><path fill="#126ebd" d="M0 0h67v61H0z"/><ellipse fill="#e2ccba" cx="15" cy="170" rx="111" ry="111"/><ellipse fill="#f4dac3" cx="218" cy="226" rx="49" ry="49"/><ellipse fill="#002a24" rx="1" ry="1" transform="matrix(46.75616 -5.49259 1.82013 15.49407 245.8 53.2)"/><path fill="#feffff" d="M1.2 61.8l82 1.4-.4 27-82-1.4z"/></g></svg>